<svg width="50" height="50" fill="none" xmlns="http://www.w3.org/2000/svg"><g clip-path="url(#a)"><path d="M25.167.766C11.63.766.657 11.776.657 25.365c0 12.203 8.869 22.338 20.478 24.255V32.943h-6.24V25.64h6.24v-5.302c0-5.75 4.646-9.651 10.375-9.651 2.547 0 4.141.385 4.141.385v6.135h-4.14a3.128 3.128 0 0 0-3.12 3.13v5.303h6.687l-.932 7.302H28.39v16.781c11.994-1.594 21.244-11.901 21.244-24.36C49.656 11.777 38.688.767 25.167.767Z" fill="#B91F33"/></g><defs><clipPath id="a"><path fill="#fff" d="M0 0h50v50H0z"/></clipPath></defs></svg>