<svg width="100" height="68" fill="none" xmlns="http://www.w3.org/2000/svg"><g clip-path="url(#a)"><path d="M9.396 18.792a4.698 4.698 0 1 0-9.396 0v14.765a4.698 4.698 0 0 0 9.396 0V18.792ZM100 18.792a4.698 4.698 0 1 0-9.396 0v14.765a4.698 4.698 0 0 0 9.396 0V18.792ZM54.362 18.792a4.698 4.698 0 1 0-9.396 0v14.765a4.698 4.698 0 0 0 9.396 0V18.792ZM24.161 12.752a4.698 4.698 0 1 0-9.396 0v26.845a4.698 4.698 0 1 0 9.396 0V12.752ZM84.564 12.752a4.698 4.698 0 1 0-9.396 0v26.845a4.698 4.698 0 1 0 9.396 0V12.752ZM39.597 4.698a4.698 4.698 0 1 0-9.396 0v42.953a4.698 4.698 0 1 0 9.396 0V4.698ZM69.799 4.698a4.698 4.698 0 0 0-9.396 0v42.953a4.698 4.698 0 0 0 9.396 0V4.698Z" fill="#B91F33"/><path d="M16.238 55.034h3.175v12.08h-3.175v-4.78h-2.325v4.78h-3.175v-12.08h3.175v4.948h2.325v-4.948ZM26.922 67.114l-.37-1.806H23.71l-.387 1.806h-3.175l3.045-12.08h3.932l3.045 12.08h-3.248Zm-2.714-4.14h1.846l-.904-4.346-.942 4.346ZM34.138 62.824v4.29h-3.23v-12.08h5.482c1.808 0 2.713.777 2.713 2.333v3.123c0 1.192-.53 1.926-1.587 2.202l2.177 4.422h-3.47l-1.882-4.29h-.203Zm1.273-5.438h-1.273v3.199h1.273c.308 0 .462-.138.462-.414V57.8c0-.276-.154-.414-.462-.414ZM40.573 55.034h5.445c1.81 0 2.713.777 2.713 2.333v7.414c0 1.555-.904 2.333-2.713 2.333h-5.445v-12.08Zm4.928 9.502v-6.925c0-.275-.153-.413-.461-.413h-1.237v7.752h1.237c.308 0 .461-.138.461-.414ZM61.79 59.55h-3.23v-1.938c0-.276-.154-.415-.462-.415h-.646c-.307 0-.461.139-.461.414v6.925c0 .276.154.414.461.414h.646c.308 0 .462-.138.462-.414v-1.863h3.23v2.108c0 1.555-.905 2.333-2.713 2.333h-2.603c-1.809 0-2.713-.778-2.713-2.333v-7.414c0-1.556.904-2.333 2.713-2.333h2.603c1.808 0 2.713.777 2.713 2.333v2.183ZM65.65 55.034h2.731c1.809 0 2.714.777 2.714 2.333v7.414c0 1.555-.905 2.333-2.714 2.333H65.65c-1.808 0-2.713-.778-2.713-2.333v-7.414c0-1.556.905-2.333 2.713-2.333Zm2.214 9.314V57.8c0-.276-.153-.414-.461-.414h-.775c-.308 0-.462.138-.462.414v6.548c0 .276.154.414.462.414h.775c.308 0 .461-.138.461-.414ZM75.739 62.824v4.29h-3.23v-12.08h5.482c1.808 0 2.712.777 2.712 2.333v3.123c0 1.192-.529 1.926-1.587 2.202l2.178 4.422h-3.47l-1.882-4.29h-.203Zm1.273-5.438H75.74v3.199h1.273c.308 0 .462-.138.462-.414V57.8c0-.276-.154-.414-.462-.414ZM85.22 64.762h4.042v2.352h-7.273v-12.08h7.106v2.352H85.22v2.465h3.341v2.352h-3.34v2.559Z" fill="#fff"/></g><defs><clipPath id="a"><path fill="#fff" d="M0 0h100v67.114H0z"/></clipPath></defs></svg>