<svg width="50" height="50" fill="none" xmlns="http://www.w3.org/2000/svg"><g clip-path="url(#a)"><mask id="b" style="mask-type:luminance" maskUnits="userSpaceOnUse" x="0" y="0" width="50" height="50"><path d="M0 0h50v50H0V0Z" fill="#fff"/></mask><g mask="url(#b)"><path d="M25 0C11.193 0 0 11.193 0 25s11.193 25 25 25 25-11.193 25-25C49.98 11.193 38.786 0 25 0Zm14.589 19.37s.432 9.567-6.839 15.5c-10.89 8.854-22.64 1.666-22.64 1.666s2.854.042 5.39-.625c2.51-.671 4.328-2.317 4.328-2.317s-2.75-.563-4.177-1.604c-1.432-1.037-1.995-3.026-1.995-3.026s.953.083 1.537.062c.61-.02 1.323-.302 1.323-.302s-1.97-.24-3.813-2.297c-1.448-1.62-1.338-4.328-1.338-4.328s.864.52 1.317.63c.459.13 1.344.13 1.344.13s-1.73-1.02-2.49-3.682c-.755-2.64.693-5.323.693-5.323s2.578 3.115 6.386 5.11c3.807 1.99 7.4 1.921 7.4 1.921s-.515-1.578.391-3.916c.912-2.339 2.964-4.026 6.104-4.266 3.141-.255 5.151 2.125 5.151 2.125s.974-.172 2.079-.583c1.104-.39 2.208-.912 2.208-.912s-.39 1.193-1.146 2.12c-.76.932-1.604 1.495-1.604 1.495s.995-.063 1.995-.344c.995-.281 1.536-.567 1.536-.567-1.15 1.906-3.14 3.333-3.14 3.333Z" fill="#B91F33"/></g></g><defs><clipPath id="a"><path fill="#fff" d="M0 0h50v50H0z"/></clipPath></defs></svg>