<svg width="50" height="50" fill="none" xmlns="http://www.w3.org/2000/svg"><g clip-path="url(#a)"><mask id="b" style="mask-type:luminance" maskUnits="userSpaceOnUse" x="0" y="0" width="50" height="50"><path d="M0 0h50v50H0V0Z" fill="#fff"/></mask><g mask="url(#b)"><path d="M25 0C11.193 0 0 11.193 0 25s11.193 25 25 25 25-11.193 25-25C49.98 11.193 38.786 0 25 0Zm14.396 31.99c-.281 1.843-1.886 3.182-3.745 3.182H14.328c-1.86 0-3.463-1.339-3.745-3.182a48.849 48.849 0 0 1-.541-7.01c.02-2.923.26-5.282.541-7.017.282-1.838 1.886-3.182 3.745-3.182h21.323c1.86 0 3.464 1.344 3.745 3.182a49.77 49.77 0 0 1 .541 7.016 49.618 49.618 0 0 1-.541 7.01Z" fill="#B91F33"/></g><path d="M21.838 20.932v8.115L29.396 25l-7.558-4.068Z" fill="#B91F33"/></g><defs><clipPath id="a"><path fill="#fff" d="M0 0h50v50H0z"/></clipPath></defs></svg>